<?xml version="1.0" standalone="no"?>
<!DOCTYPE svg PUBLIC "-//W3C//DTD SVG 20010904//EN"
 "http://www.w3.org/TR/2001/REC-SVG-20010904/DTD/svg10.dtd">
<svg version="1.0" xmlns="http://www.w3.org/2000/svg"
 width="168.000000pt" height="168.000000pt" viewBox="0 0 168.000000 168.000000"
 preserveAspectRatio="xMidYMid meet">
<metadata>
Created by potrace 1.11, written by Peter Selinger 2001-2013
</metadata>
<g transform="translate(0.000000,168.000000) scale(0.100000,-0.100000)"
fill="#000000" stroke="none">
<path d="M130 1212 c0 -25 -8 -35 -45 -59 -46 -29 -63 -52 -46 -62 5 -4 8 -22
7 -41 -5 -54 -5 -55 -18 -42 -7 7 -15 12 -18 12 -11 0 -5 -77 7 -92 7 -8 11
-17 8 -20 -3 -3 1 -10 8 -16 10 -9 12 -27 6 -74 -4 -35 -10 -92 -13 -128 -4
-36 -9 -89 -12 -117 l-5 -53 838 0 c661 1 835 3 822 13 -12 9 -178 12 -708 11
-380 0 -694 2 -696 6 -3 4 -7 32 -10 61 -3 30 -10 86 -15 124 -5 39 -10 86
-11 105 -2 36 13 84 29 94 9 5 7 75 -3 85 -3 3 -10 -1 -15 -9 -14 -23 -24 13
-17 62 5 39 3 44 -34 78 -22 20 -39 45 -39 57 0 12 -4 25 -10 28 -6 4 -10 -6
-10 -23z m47 -89 c3 -7 -16 -11 -51 -11 -31 1 -56 2 -56 4 0 1 15 11 32 23 28
17 36 18 52 7 11 -7 22 -18 23 -23z m23 -79 c0 -39 -2 -45 -14 -35 -11 9 -19
9 -34 0 -17 -10 -24 -10 -38 2 -13 11 -18 11 -21 2 -10 -29 -23 -10 -23 32 l0
45 65 0 65 0 0 -46z m40 -79 c0 -12 -18 -15 -105 -15 -87 0 -105 3 -105 15 0
12 18 15 105 15 87 0 105 -3 105 -15z m-20 -46 c0 -5 -38 -9 -85 -9 -47 0 -85
4 -85 8 0 4 38 8 85 9 47 1 85 -3 85 -8z m-20 -46 c0 -7 -6 -10 -15 -7 -9 4
-15 0 -15 -9 0 -8 9 -17 20 -20 26 -7 26 -27 1 -27 -11 0 -23 -4 -26 -10 -4
-6 5 -10 19 -10 19 0 26 -5 26 -20 0 -13 -7 -20 -20 -20 -11 0 -20 -6 -20 -14
0 -8 9 -12 26 -10 37 4 27 -29 -11 -37 -30 -6 -23 -14 20 -21 22 -4 35 -40 13
-37 -7 1 -24 1 -37 0 -36 -2 -14 -19 28 -23 33 -3 34 -4 17 -21 -12 -11 -25
-15 -38 -11 -15 4 -19 2 -16 -7 3 -8 17 -14 31 -13 15 1 27 -2 27 -6 0 -4 -44
-6 -97 -6 -59 1 -97 5 -97 11 1 6 4 44 8 85 7 86 14 147 21 206 l6 40 64 0
c46 0 65 -3 65 -13z"/>
<path d="M360 1155 c0 -8 5 -15 10 -15 6 0 10 -39 10 -96 0 -61 -4 -93 -10
-89 -5 3 -10 -2 -10 -13 0 -17 8 -19 88 -18 48 1 90 4 93 9 3 4 4 21 1 37 -5
35 -29 40 -34 8 -2 -19 -9 -23 -38 -22 -19 1 -38 2 -42 3 -12 2 -10 181 2 181
6 0 10 7 10 15 0 11 -11 15 -40 15 -29 0 -40 -4 -40 -15z"/>
<path d="M629 1074 c-18 -53 -39 -103 -46 -110 -25 -25 -15 -42 22 -39 42 2
52 10 36 28 -12 15 -5 46 10 48 70 10 92 -2 84 -44 -6 -32 -6 -32 34 -33 34
-1 41 2 41 17 0 11 -6 19 -13 19 -6 0 -28 46 -48 103 -31 91 -38 102 -61 105
-24 3 -27 -3 -59 -94z m74 11 c9 -25 13 -45 9 -46 -43 -5 -52 -4 -52 4 0 12
22 87 26 87 1 0 9 -20 17 -45z"/>
<path d="M410 843 c-45 -17 -62 -61 -40 -103 5 -10 32 -26 59 -35 27 -9 52
-22 54 -28 16 -44 -64 -67 -84 -24 -12 26 -49 34 -49 10 0 -9 13 -28 29 -44
24 -22 37 -27 67 -24 44 4 77 33 77 69 0 35 -25 60 -73 75 -44 13 -66 41 -48
59 18 18 55 14 75 -6 10 -10 25 -18 33 -18 26 1 16 29 -19 53 -34 23 -52 26
-81 16z"/>
<path d="M560 842 c-14 -5 -12 -29 3 -35 16 -6 15 -169 -2 -175 -6 -2 -11 -10
-11 -18 0 -11 19 -14 90 -14 l90 0 0 35 c0 28 -4 35 -20 35 -13 0 -20 -7 -20
-20 0 -17 -7 -20 -40 -20 l-40 0 0 41 c0 36 3 40 23 39 38 -3 47 -1 47 15 0
10 -11 15 -35 15 -33 0 -35 2 -35 35 0 34 1 35 40 35 33 0 40 -3 40 -20 0 -13
7 -20 20 -20 16 0 20 7 20 35 0 19 -3 35 -7 36 -30 3 -155 3 -163 1z"/>
<path d="M760 836 c-14 -14 -12 -26 4 -26 10 0 13 -20 13 -90 0 -63 -4 -90
-12 -90 -6 0 -12 -7 -12 -15 0 -11 12 -15 44 -15 32 0 43 4 43 15 0 8 -6 15
-13 15 -9 0 -13 14 -14 40 -1 35 2 40 22 40 29 0 40 -14 54 -67 10 -36 16 -43
36 -43 16 0 25 6 25 15 0 8 -4 15 -9 15 -12 0 -42 93 -31 100 5 3 13 18 19 33
9 22 7 31 -12 53 -19 22 -31 26 -85 27 -35 1 -67 -2 -72 -7z m129 -45 c15 -28
-8 -54 -44 -49 -26 3 -30 7 -31 36 -1 30 1 32 32 32 22 0 37 -6 43 -19z"/>
<path d="M990 828 c0 -10 5 -18 10 -18 6 0 10 -37 10 -90 0 -53 -4 -90 -10
-90 -5 0 -10 -7 -10 -15 0 -13 14 -15 87 -13 l86 3 2 29 c0 16 -5 31 -13 34
-15 5 -34 -17 -26 -30 3 -4 -15 -8 -39 -8 l-45 0 0 38 c-1 38 0 38 36 38 51
-1 52 28 1 32 -35 3 -37 5 -37 38 0 34 0 34 44 34 37 0 44 -3 42 -17 -2 -12 3
-18 16 -18 14 0 20 8 20 28 1 16 -3 31 -8 34 -5 4 -45 7 -88 7 -68 1 -78 -1
-78 -16z"/>
<path d="M1202 842 c-16 -5 -15 -29 1 -35 17 -6 17 -169 -1 -175 -7 -2 -12
-10 -12 -18 0 -10 13 -14 45 -14 35 0 43 3 39 15 -4 8 -10 15 -15 15 -5 0 -9
35 -9 78 l0 77 53 -92 c41 -74 57 -93 75 -93 21 0 22 3 22 105 0 63 4 105 10
105 17 0 11 28 -7 32 -30 6 -63 -4 -63 -18 0 -8 6 -14 13 -14 10 0 14 -20 14
-75 0 -42 -4 -72 -8 -68 -4 4 -26 43 -49 85 -49 91 -65 105 -108 90z"/>
<path d="M1531 841 c-6 -4 -28 -52 -47 -107 -20 -54 -42 -103 -50 -107 -24
-13 -5 -27 37 -27 27 0 39 4 39 14 0 8 -5 16 -11 18 -7 2 -9 13 -5 26 6 18 15
22 52 22 37 0 46 -4 53 -22 5 -13 5 -24 0 -26 -5 -2 -9 -10 -9 -18 0 -10 13
-14 45 -14 34 0 43 3 39 14 -3 8 -11 17 -18 19 -6 3 -27 50 -46 105 -33 98
-50 120 -79 103z m32 -73 c2 -13 8 -31 12 -40 6 -15 2 -18 -24 -18 -34 0 -37
8 -19 56 13 36 23 37 31 2z"/>
<path d="M17 493 c-4 -3 -7 -9 -7 -12 0 -4 340 -7 755 -7 604 1 755 3 755 13
0 10 -149 13 -748 13 -412 0 -752 -3 -755 -7z"/>
<path d="M10 440 c0 -7 223 -10 650 -10 427 0 650 3 650 10 0 7 -223 10 -650
10 -427 0 -650 -3 -650 -10z"/>
</g>
</svg>
